<svg width="90" height="90" viewBox="0 0 90 90" fill="none" xmlns="http://www.w3.org/2000/svg">
<path d="M44.925 52.47C49.0837 52.47 52.455 49.0987 52.455 44.94C52.455 40.7813 49.0837 37.41 44.925 37.41C40.7663 37.41 37.395 40.7813 37.395 44.94C37.395 49.0987 40.7663 52.47 44.925 52.47Z" fill="#00D8FF"/>
<path d="M44.925 62.19C34.35 62.19 25.11 60.945 18.195 58.575C13.71 57.045 9.9 55.005 7.185 52.68C4.305 50.22 2.775 47.535 2.775 44.94C2.775 39.96 8.235 35.085 17.4 31.905C24.9 29.295 34.68 27.84 44.91 27.84C54.96 27.84 64.605 29.25 72.06 31.83C76.425 33.33 80.1 35.28 82.71 37.44C85.545 39.81 87.045 42.405 87.045 44.94C87.045 50.115 80.94 55.35 71.1 58.605C64.14 60.915 54.84 62.19 44.925 62.19ZM44.925 31.44C35.22 31.44 25.62 32.85 18.6 35.295C10.17 38.235 6.39 42.255 6.39 44.94C6.39 47.73 10.455 52.125 19.365 55.17C25.905 57.405 34.755 58.59 44.925 58.59C54.465 58.59 63.36 57.39 69.975 55.185C79.23 52.11 83.46 47.715 83.46 44.94C83.46 43.515 82.38 41.835 80.415 40.2C78.15 38.31 74.85 36.585 70.905 35.22C63.81 32.79 54.585 31.44 44.925 31.44Z" fill="#00D8FF"/>
<path d="M27.84 82.47C26.31 82.47 24.96 82.14 23.82 81.48C19.515 78.99 18.015 71.82 19.83 62.295C21.315 54.48 24.945 45.3 30.06 36.435C35.085 27.735 41.115 20.085 47.07 14.91C50.55 11.88 54.075 9.66 57.255 8.49C60.72 7.215 63.72 7.215 65.91 8.475C70.395 11.055 71.88 18.975 69.78 29.115C68.295 36.315 64.755 45 59.805 53.595C54.525 62.745 48.825 70.125 43.32 74.94C39.75 78.06 36.075 80.34 32.715 81.525C30.96 82.155 29.31 82.47 27.84 82.47ZM31.605 37.335L33.165 38.235C28.32 46.635 24.735 55.65 23.355 62.97C21.69 71.745 23.295 77.025 25.605 78.36C26.175 78.69 26.925 78.87 27.84 78.87C30.825 78.87 35.52 76.98 40.95 72.24C46.155 67.695 51.6 60.615 56.685 51.81C61.455 43.545 64.845 35.235 66.255 28.41C68.22 18.855 66.525 13.005 64.11 11.61C62.88 10.905 60.885 10.995 58.485 11.88C55.71 12.9 52.575 14.895 49.425 17.64C43.77 22.56 37.995 29.88 33.165 38.25L31.605 37.335Z" fill="#00D8FF"/>
<path d="M62.01 82.515C57.93 82.515 52.755 80.055 47.355 75.405C41.325 70.215 35.19 62.49 30.06 53.625C25.02 44.925 21.42 35.88 19.905 28.125C19.02 23.595 18.855 19.44 19.425 16.095C20.055 12.45 21.54 9.855 23.745 8.58C28.215 5.985 35.82 8.655 43.56 15.54C49.05 20.415 54.81 27.825 59.775 36.405C65.07 45.555 68.625 54.18 70.035 61.35C70.95 66 71.1 70.32 70.455 73.83C69.765 77.565 68.205 80.22 65.955 81.525C64.83 82.185 63.495 82.515 62.01 82.515ZM33.18 51.825C38.04 60.225 44.07 67.83 49.71 72.675C56.475 78.495 61.845 79.755 64.17 78.405C66.585 77.01 68.355 71.295 66.525 62.055C65.175 55.275 61.77 47.025 56.67 38.22C51.885 29.955 46.38 22.86 41.175 18.24C33.885 11.76 27.975 10.305 25.56 11.7C24.33 12.405 23.415 14.19 22.98 16.71C22.485 19.62 22.635 23.34 23.445 27.435C24.885 34.8 28.335 43.455 33.18 51.825Z" fill="#00D8FF"/>
</svg>
